<svg width="100" height="100" viewBox="0 0 100 100" fill="none" xmlns="http://www.w3.org/2000/svg">
<g clip-path="url(#clip0_6056_613111)">
<path d="M50 100C77.6142 100 100 77.6142 100 50C100 22.3858 77.6142 0 50 0C22.3858 0 0 22.3858 0 50C0 77.6142 22.3858 100 50 100Z" fill="black"/>
<path d="M85.7422 55.1367C85.7422 55.1172 85.7422 55.1172 85.7422 55.1367C85.7422 55.0977 85.7422 55.0781 85.7617 55.0781C85.7812 55.0195 85.7813 54.9609 85.7813 54.8828C85.7813 54.8633 85.7813 54.8438 85.7813 54.8047C85.7813 54.7461 85.7812 54.6875 85.7617 54.6289C85.7617 54.6094 85.7617 54.6094 85.7617 54.5898L83.2227 43.9844C83.125 43.5938 82.832 43.3008 82.4414 43.2031L71.9336 40.6641C71.9141 40.6641 71.8945 40.6641 71.875 40.6641C71.8164 40.6445 71.7774 40.6445 71.7188 40.6445C71.6992 40.6445 71.6602 40.6445 71.6406 40.6445C71.582 40.6445 71.5234 40.6641 71.4453 40.6641C71.4258 40.6641 71.4063 40.6641 71.3867 40.6641H71.3672C71.2891 40.6836 71.2305 40.7227 71.1523 40.7617C71.1328 40.7617 71.1328 40.7812 71.1133 40.7812C71.0547 40.8203 70.9961 40.8594 70.957 40.8984L70.9375 40.918L58.2227 53.2617C58.1055 53.3008 57.9883 53.3789 57.9102 53.457C57.8125 53.5547 57.7344 53.6719 57.6953 53.7891L53.1445 58.2227L50.6055 49.4922C50.6055 49.4727 50.5859 49.4336 50.5664 49.4141C50.5469 49.375 50.5469 49.3555 50.5273 49.3359C50.4688 49.2188 50.4102 49.1211 50.3125 49.043C50.2148 48.9648 50.1172 48.9062 50 48.8477C49.9805 48.8281 49.9414 48.8281 49.9219 48.8086C49.9023 48.8086 49.8633 48.7891 49.8438 48.7695L41.3477 46.7188L59.3164 28.8281L56.582 16.8555L45 14.2578L14.2188 44.9219L16.8164 56.4844L27.3438 59.2188L29.9219 69.3945C30.0195 69.7852 30.332 70.0781 30.7227 70.1563L40.4688 72.1094L43.3398 82.3633C43.3398 82.3828 43.3594 82.4023 43.3789 82.4414C43.3984 82.4609 43.3984 82.5 43.418 82.5195C43.4766 82.6172 43.5352 82.7344 43.6133 82.8125V82.832C43.6914 82.9102 43.8086 82.9883 43.9258 83.0273C43.9648 83.0469 43.9844 83.0469 44.0234 83.0664C44.043 83.0859 44.082 83.0859 44.1016 83.1055L54.4141 85.7422C54.4922 85.7617 54.5898 85.7812 54.668 85.7812C54.7656 85.7812 54.8438 85.7617 54.9219 85.7422C54.9414 85.7422 54.9414 85.7422 54.9609 85.7422C54.9805 85.7422 55 85.7227 55 85.7227C55.0391 85.7031 55.0781 85.7031 55.0977 85.6836C55.1367 85.6641 55.1563 85.6445 55.1953 85.6445C55.2148 85.625 55.2539 85.6055 55.2734 85.5859C55.293 85.5664 55.332 85.5469 55.3516 85.5273C55.3711 85.5078 55.3711 85.5078 55.3906 85.4883L85.4492 55.625L85.4688 55.6055C85.5078 55.5664 85.5469 55.5078 85.5859 55.4492C85.5859 55.4297 85.6055 55.4297 85.6055 55.4102C85.6836 55.2734 85.7227 55.1953 85.7422 55.1367ZM72.0703 65.918L70.0586 57.832L75.0195 52.8711L82.7734 55.2734L72.0703 65.918ZM55.1758 82.7148L52.9297 74.9805L61.9727 65.9375L69.5703 68.418L55.1758 82.7148ZM42.832 72.7539L49.9805 74.9414L44.8828 80.0391L42.832 72.7539ZM58.125 56.3281L60.293 64.6484L51.6406 73.3008L43.2813 70.7422L58.125 56.3281ZM71.1914 43.6328L73.5352 51.4063L68.6524 56.2891L60.7422 53.7891L71.1914 43.6328ZM70.0391 66.3672L63.6328 64.2773L68.3398 59.5703L70.0391 66.3672ZM62.0117 62.9297L60.1563 55.8008L66.9922 57.9492L62.0117 62.9297ZM51.2305 76.6602L53.1445 83.2227L46.3867 81.5039L51.2305 76.6602ZM83.3008 53.2812L75.5664 50.8789L73.2422 43.125L81.3477 45.0781L83.3008 53.2812ZM41.8945 69.1797L40 61.3867L42.8906 58.3594L50.7227 60.6055L41.8945 69.1797ZM43.0469 55.1562L40.957 48.7695L47.6172 50.3711L43.0469 55.1562ZM44.5313 56.6406L49.1211 51.8164L51.0742 58.4961L44.5313 56.6406ZM41.4063 56.875L38.5156 59.9023L30.2539 57.793L38.8867 49.1992L41.4063 56.875ZM31.7188 30.4492L33.9258 37.7734L24.8438 46.9336L17.3633 44.7461L31.7188 30.4492ZM46.7578 24.8242L41.9922 29.6484L34.2773 27.9102L44.8047 17.4414L46.7578 24.8242ZM45.7227 39.4336L43.6914 30.8984L48.2031 26.3477L56.2109 28.9844L45.7227 39.4336ZM35.6055 36.0938L33.75 29.9414L40.2539 31.4062L35.6055 36.0938ZM41.9531 32.6367L43.6133 39.6484L37.1094 37.5391L41.9531 32.6367ZM24.6094 50.1367L26.6602 56.875L19.7266 55.0781L24.6094 50.1367ZM26.2891 48.457L35.4492 39.2188L43.3594 41.7969L28.7109 56.3867L26.2891 48.457ZM56.7383 26.9336L48.7891 24.3164L46.7773 16.7969L54.8242 18.6133L56.7383 26.9336ZM16.7773 46.7578L23.1641 48.6328L18.3008 53.5352L16.7773 46.7578ZM31.7773 68.2227L29.6484 59.8047L37.9688 61.9336L39.9023 69.8438L31.7773 68.2227Z" fill="url(#paint0_linear_6056_613111)"/>
</g>
<defs>
<linearGradient id="paint0_linear_6056_613111" x1="30.2089" y1="69.8771" x2="69.9005" y2="30.1855" gradientUnits="userSpaceOnUse">
<stop stop-color="#34A3ED"/>
<stop offset="0.9988" stop-color="#8165F5"/>
</linearGradient>
<clipPath id="clip0_6056_613111">
<rect width="100" height="100" fill="white"/>
</clipPath>
</defs>
</svg>
