<svg width="1437" height="984" viewBox="0 0 1437 984" fill="none" xmlns="http://www.w3.org/2000/svg">
<g opacity="0.5" clip-path="url(#clip0_6066_193616)">
<circle cx="824.101" cy="598.622" r="1.1824" fill="white" fill-opacity="0.5"/>
<circle cx="23.2167" cy="775.738" r="1.29772" fill="white" fill-opacity="0.3"/>
<circle cx="1031.18" cy="775.701" r="1.26147" fill="white" fill-opacity="0.4"/>
<circle cx="1018.07" cy="218.589" r="1.1494" fill="white" fill-opacity="0.5"/>
<circle cx="411.382" cy="472.903" r="1.46308" fill="white" fill-opacity="0.3"/>
<circle cx="995.094" cy="389.615" r="1.17479" fill="white" fill-opacity="0.5"/>
<circle cx="1212.97" cy="126.488" r="1.04764" fill="white" fill-opacity="0.4"/>
<circle cx="1207.94" cy="190.462" r="1.02232" fill="white" fill-opacity="0.5"/>
<circle cx="299" cy="512.521" r="1.08059" fill="white" fill-opacity="0.6"/>
<circle cx="623.951" cy="832.472" r="1.03193" fill="white" fill-opacity="0.4"/>
<circle cx="963.378" cy="19.8995" r="1.45954" fill="white" fill-opacity="0.4"/>
<circle cx="540.102" cy="700.623" r="1.18288" fill="white" fill-opacity="0.4"/>
<circle cx="870.333" cy="636.854" r="1.41413" fill="white" fill-opacity="0.5"/>
<circle cx="291.969" cy="410.49" r="1.05007" fill="white" fill-opacity="0.6"/>
<circle cx="1005.19" cy="701.708" r="1.26777" fill="white" fill-opacity="0.4"/>
<circle cx="319.302" cy="774.823" r="1.38322" fill="white" fill-opacity="0.4"/>
<circle cx="301.231" cy="856.752" r="1.31212" fill="white" fill-opacity="0.3"/>
<circle cx="212.253" cy="547.774" r="1.33387" fill="white" fill-opacity="0.5"/>
<circle cx="312.933" cy="112.454" r="1.01394" fill="white" fill-opacity="0.5"/>
<circle cx="514.085" cy="294.606" r="1.1664" fill="white" fill-opacity="0.6"/>
<circle cx="1344.04" cy="454.566" r="1.12581" fill="white" fill-opacity="0.4"/>
<circle cx="310.206" cy="210.727" r="1.2874" fill="white" fill-opacity="0.5"/>
<circle cx="1174.08" cy="526.598" r="1.15816" fill="white" fill-opacity="0.6"/>
<circle cx="1274.22" cy="732.737" r="1.29685" fill="white" fill-opacity="0.5"/>
<circle cx="594.996" cy="619.517" r="1.07754" fill="white" fill-opacity="0.5"/>
<circle cx="727.927" cy="579.448" r="1.00844" fill="white" fill-opacity="0.3"/>
<circle cx="676.092" cy="776.613" r="1.17266" fill="white" fill-opacity="0.5"/>
<circle cx="417.097" cy="842.618" r="1.17785" fill="white" fill-opacity="0.3"/>
<circle cx="298.006" cy="852.527" r="1.08721" fill="white" fill-opacity="0.5"/>
<circle cx="406.096" cy="198.617" r="1.17726" fill="white" fill-opacity="0.5"/>
<circle cx="1137.07" cy="263.587" r="1.14691" fill="white" fill-opacity="0.4"/>
<circle cx="1042.21" cy="691.726" r="1.28612" fill="white" fill-opacity="0.5"/>
<circle cx="340.234" cy="769.755" r="1.31547" fill="white" fill-opacity="0.3"/>
<circle cx="151.167" cy="591.688" r="1.24852" fill="white" fill-opacity="0.4"/>
<circle cx="1253.31" cy="199.836" r="1.39581" fill="white" fill-opacity="0.6"/>
<circle cx="1183.37" cy="162.893" r="1.453" fill="white" fill-opacity="0.4"/>
<circle cx="1071.38" cy="780.897" r="1.45743" fill="white" fill-opacity="0.5"/>
<circle cx="40.9449" cy="583.466" r="1.02598" fill="white" fill-opacity="0.6"/>
<circle cx="689.41" cy="689.931" r="1.49115" fill="white" fill-opacity="0.4"/>
<circle cx="54.1244" cy="346.645" r="1.20543" fill="white" fill-opacity="0.5"/>
<circle cx="1311.22" cy="805.745" r="1.30506" fill="white" fill-opacity="0.4"/>
<circle cx="732.121" cy="297.642" r="1.20183" fill="white" fill-opacity="0.6"/>
<circle cx="785.985" cy="68.5057" r="1.06572" fill="white" fill-opacity="0.5"/>
<circle cx="503.112" cy="794.633" r="1.19338" fill="white" fill-opacity="0.4"/>
<circle cx="297.399" cy="546.92" r="1.48012" fill="white" fill-opacity="0.5"/>
<circle cx="1269.94" cy="768.464" r="1.02371" fill="white" fill-opacity="0.5"/>
<circle cx="916.382" cy="833.903" r="1.46334" fill="white" fill-opacity="0.6"/>
<circle cx="203.192" cy="308.713" r="1.27282" fill="white" fill-opacity="0.6"/>
<circle cx="120.032" cy="797.553" r="1.11313" fill="white" fill-opacity="0.4"/>
<circle cx="14.3125" cy="458.833" r="1.39352" fill="white" fill-opacity="0.6"/>
<circle cx="1279.24" cy="779.757" r="1.31746" fill="white" fill-opacity="0.4"/>
<circle cx="1288.27" cy="310.791" r="1.35118" fill="white" fill-opacity="0.4"/>
<circle cx="681.245" cy="869.766" r="1.32582" fill="white" fill-opacity="0.6"/>
<circle cx="1014.4" cy="569.917" r="1.47711" fill="white" fill-opacity="0.4"/>
<circle cx="818.197" cy="789.718" r="1.27805" fill="white" fill-opacity="0.3"/>
<circle cx="83.0691" cy="165.59" r="1.15013" fill="white" fill-opacity="0.4"/>
<circle cx="496.091" cy="319.612" r="1.17218" fill="white" fill-opacity="0.3"/>
<circle cx="919.054" cy="232.575" r="1.13457" fill="white" fill-opacity="0.5"/>
<circle cx="0.247792" cy="318.769" r="1.32885" fill="white" fill-opacity="0.4"/>
<circle cx="291.151" cy="173.672" r="1.23186" fill="white" fill-opacity="0.4"/>
<circle cx="154.169" cy="775.69" r="1.24996" fill="white" fill-opacity="0.6"/>
<circle cx="955.226" cy="684.747" r="1.30682" fill="white" fill-opacity="0.5"/>
<circle cx="1260.41" cy="563.933" r="1.49334" fill="white" fill-opacity="0.6"/>
<circle cx="674.084" cy="287.605" r="1.16539" fill="white" fill-opacity="0.5"/>
<circle cx="1177.39" cy="638.907" r="1.46668" fill="white" fill-opacity="0.4"/>
<circle cx="1321.98" cy="44.5059" r="1.06594" fill="white" fill-opacity="0.5"/>
<circle cx="513.212" cy="382.733" r="1.29264" fill="white" fill-opacity="0.4"/>
<circle cx="135.09" cy="38.611" r="1.1711" fill="white" fill-opacity="0.3"/>
<circle cx="478.388" cy="786.909" r="1.46912" fill="white" fill-opacity="0.6"/>
<circle cx="63.1119" cy="418.633" r="1.19299" fill="white" fill-opacity="0.5"/>
<circle cx="515.971" cy="884.492" r="1.05238" fill="white" fill-opacity="0.4"/>
<circle cx="23.081" cy="736.602" r="1.16207" fill="white" fill-opacity="0.6"/>
<circle cx="262.923" cy="667.444" r="1.00432" fill="white" fill-opacity="0.5"/>
<circle cx="544.094" cy="875.615" r="1.1751" fill="white" fill-opacity="0.5"/>
<circle cx="1088.14" cy="398.659" r="1.21927" fill="white" fill-opacity="0.3"/>
<circle cx="637.132" cy="257.653" r="1.21317" fill="white" fill-opacity="0.6"/>
<circle cx="136.089" cy="372.61" r="1.16998" fill="white" fill-opacity="0.6"/>
<circle cx="369.349" cy="730.87" r="1.43045" fill="white" fill-opacity="0.4"/>
<circle cx="1300.97" cy="-0.50705" r="1.05301" fill="white" fill-opacity="0.4"/>
<circle cx="1235.25" cy="654.775" r="1.33537" fill="white" fill-opacity="0.4"/>
<circle cx="183.258" cy="431.779" r="1.33906" fill="white" fill-opacity="0.5"/>
<circle cx="1310.18" cy="46.6969" r="1.25691" fill="white" fill-opacity="0.5"/>
<circle cx="478.37" cy="860.891" r="1.45086" fill="white" fill-opacity="0.4"/>
<circle cx="101.062" cy="765.583" r="1.14316" fill="white" fill-opacity="0.6"/>
<circle cx="416.98" cy="655.501" r="1.06062" fill="white" fill-opacity="0.4"/>
<circle cx="1334.21" cy="735.729" r="1.28893" fill="white" fill-opacity="0.5"/>
<circle cx="420.128" cy="674.649" r="1.20917" fill="white" fill-opacity="0.3"/>
<circle cx="58.3709" cy="200.892" r="1.452" fill="white" fill-opacity="0.4"/>
<circle cx="88.2448" cy="95.7658" r="1.32589" fill="white" fill-opacity="0.5"/>
<circle cx="856.058" cy="804.579" r="1.13885" fill="white" fill-opacity="0.5"/>
<circle cx="798.359" cy="554.88" r="1.44057" fill="white" fill-opacity="0.6"/>
<circle cx="767.252" cy="28.7733" r="1.33333" fill="white" fill-opacity="0.6"/>
<circle cx="207.065" cy="218.586" r="1.14599" fill="white" fill-opacity="0.3"/>
<circle cx="176.016" cy="486.537" r="1.09664" fill="white" fill-opacity="0.6"/>
<circle cx="7.29222" cy="685.813" r="1.37328" fill="white" fill-opacity="0.3"/>
<circle cx="1276.15" cy="829.671" r="1.23105" fill="white" fill-opacity="0.6"/>
<circle cx="557.036" cy="666.557" r="1.11747" fill="white" fill-opacity="0.3"/>
<circle cx="37.3856" cy="226.907" r="1.46665" fill="white" fill-opacity="0.5"/>
<circle cx="361.37" cy="715.891" r="1.45144" fill="white" fill-opacity="0.6"/>
<circle cx="1000.37" cy="646.894" r="1.45393" fill="white" fill-opacity="0.5"/>
<circle cx="49.0833" cy="831.604" r="1.16437" fill="white" fill-opacity="0.6"/>
<circle cx="605.096" cy="510.617" r="1.17678" fill="white" fill-opacity="0.3"/>
<circle cx="299.936" cy="839.457" r="1.01715" fill="white" fill-opacity="0.6"/>
<circle cx="442.093" cy="804.614" r="1.1745" fill="white" fill-opacity="0.5"/>
<circle cx="1119.19" cy="12.7076" r="1.26766" fill="white" fill-opacity="0.5"/>
<circle cx="887.324" cy="322.845" r="1.40476" fill="white" fill-opacity="0.4"/>
<circle cx="339.278" cy="434.799" r="1.35933" fill="white" fill-opacity="0.5"/>
<circle cx="1153.95" cy="188.467" r="1.02698" fill="white" fill-opacity="0.3"/>
<circle cx="995.255" cy="893.776" r="1.33613" fill="white" fill-opacity="0.4"/>
<circle cx="1062.41" cy="831.936" r="1.49559" fill="white" fill-opacity="0.5"/>
<circle cx="375.353" cy="522.874" r="1.43399" fill="white" fill-opacity="0.4"/>
<circle cx="267.156" cy="752.677" r="1.23736" fill="white" fill-opacity="0.5"/>
<circle cx="679.276" cy="681.797" r="1.35705" fill="white" fill-opacity="0.3"/>
<circle cx="106.081" cy="212.602" r="1.16168" fill="white" fill-opacity="0.4"/>
<circle cx="8.26826" cy="314.789" r="1.34931" fill="white" fill-opacity="0.5"/>
<circle cx="349.162" cy="139.683" r="1.24327" fill="white" fill-opacity="0.4"/>
<circle cx="1133.05" cy="650.567" r="1.12721" fill="white" fill-opacity="0.3"/>
<circle cx="1194.93" cy="444.45" r="1.01012" fill="white" fill-opacity="0.3"/>
<circle cx="895.281" cy="448.802" r="1.36254" fill="white" fill-opacity="0.4"/>
<circle cx="1037.1" cy="54.6232" r="1.18329" fill="white" fill-opacity="0.4"/>
<circle cx="420.278" cy="273.799" r="1.35884" fill="white" fill-opacity="0.4"/>
<circle cx="15.037" cy="211.558" r="1.1181" fill="white" fill-opacity="0.4"/>
<circle cx="13.148" cy="881.669" r="1.22904" fill="white" fill-opacity="0.5"/>
<circle cx="809.37" cy="548.891" r="1.45126" fill="white" fill-opacity="0.5"/>
<circle cx="886.053" cy="170.574" r="1.13427" fill="white" fill-opacity="0.6"/>
<circle cx="216.014" cy="770.535" r="1.09499" fill="white" fill-opacity="0.4"/>
<circle cx="22.0112" cy="890.532" r="1.09227" fill="white" fill-opacity="0.5"/>
<circle cx="316.372" cy="192.893" r="1.45268" fill="white" fill-opacity="0.6"/>
<circle cx="958.411" cy="448.932" r="1.49244" fill="white" fill-opacity="0.4"/>
<circle cx="943.954" cy="136.475" r="1.03555" fill="white" fill-opacity="0.4"/>
<circle cx="475.013" cy="583.534" r="1.09356" fill="white" fill-opacity="0.3"/>
<circle cx="1111.08" cy="460.601" r="1.16082" fill="white" fill-opacity="0.5"/>
<circle cx="1006.21" cy="75.7341" r="1.29419" fill="white" fill-opacity="0.4"/>
<circle cx="699.357" cy="222.878" r="1.43803" fill="white" fill-opacity="0.6"/>
<circle cx="146.199" cy="409.72" r="1.27999" fill="white" fill-opacity="0.4"/>
<circle cx="1291.37" cy="739.896" r="1.45588" fill="white" fill-opacity="0.5"/>
<circle cx="1028.35" cy="640.873" r="1.43336" fill="white" fill-opacity="0.4"/>
<circle cx="1125.41" cy="388.933" r="1.49348" fill="white" fill-opacity="0.6"/>
<circle cx="119.228" cy="853.749" r="1.30885" fill="white" fill-opacity="0.4"/>
<circle cx="492.124" cy="573.645" r="1.20475" fill="white" fill-opacity="0.5"/>
<circle cx="954.372" cy="532.893" r="1.45309" fill="white" fill-opacity="0.5"/>
<circle cx="782.392" cy="41.9132" r="1.47325" fill="white" fill-opacity="0.6"/>
<circle cx="1160.02" cy="251.538" r="1.0985" fill="white" fill-opacity="0.5"/>
<circle cx="1102.25" cy="364.772" r="1.33175" fill="white" fill-opacity="0.4"/>
<circle cx="746.294" cy="502.815" r="1.37472" fill="white" fill-opacity="0.3"/>
<circle cx="1343.1" cy="641.621" r="1.18151" fill="white" fill-opacity="0.4"/>
<circle cx="675.246" cy="787.767" r="1.32718" fill="white" fill-opacity="0.4"/>
<circle cx="1107.97" cy="80.4873" r="1.04734" fill="white" fill-opacity="0.5"/>
<circle cx="680.281" cy="20.8023" r="1.36239" fill="white" fill-opacity="0.6"/>
<circle cx="111.218" cy="321.739" r="1.29924" fill="white" fill-opacity="0.4"/>
<circle cx="1054.05" cy="89.5746" r="1.13462" fill="white" fill-opacity="0.5"/>
<circle cx="877.244" cy="189.765" r="1.32513" fill="white" fill-opacity="0.3"/>
<circle cx="771.065" cy="252.586" r="1.14593" fill="white" fill-opacity="0.4"/>
<circle cx="508.274" cy="490.795" r="1.35481" fill="white" fill-opacity="0.4"/>
<circle cx="383.208" cy="482.729" r="1.2893" fill="white" fill-opacity="0.4"/>
<circle cx="749.354" cy="761.875" r="1.43492" fill="white" fill-opacity="0.5"/>
<circle cx="803.994" cy="776.515" r="1.0754" fill="white" fill-opacity="0.5"/>
<circle cx="1117.33" cy="491.851" r="1.41111" fill="white" fill-opacity="0.5"/>
<circle cx="8.13683" cy="537.658" r="1.21788" fill="white" fill-opacity="0.6"/>
<circle cx="162.983" cy="533.504" r="1.0642" fill="white" fill-opacity="0.3"/>
<circle cx="702.062" cy="268.583" r="1.14275" fill="white" fill-opacity="0.6"/>
<circle cx="560.014" cy="152.535" r="1.09544" fill="white" fill-opacity="0.4"/>
<circle cx="1122.98" cy="33.5037" r="1.06373" fill="white" fill-opacity="0.5"/>
<circle cx="880.382" cy="45.9029" r="1.46297" fill="white" fill-opacity="0.4"/>
<circle cx="707.1" cy="548.621" r="1.18071" fill="white" fill-opacity="0.6"/>
<circle cx="926.983" cy="831.504" r="1.0644" fill="white" fill-opacity="0.5"/>
<circle cx="1171.33" cy="372.852" r="1.41155" fill="white" fill-opacity="0.5"/>
<circle cx="732.239" cy="106.76" r="1.31986" fill="white" fill-opacity="0.5"/>
<circle cx="146.378" cy="4.89934" r="1.4594" fill="white" fill-opacity="0.5"/>
<circle cx="221.015" cy="250.536" r="1.09624" fill="white" fill-opacity="0.6"/>
<circle cx="1182.33" cy="698.851" r="1.41135" fill="white" fill-opacity="0.6"/>
<circle cx="46.9663" cy="530.487" r="1.04734" fill="white" fill-opacity="0.6"/>
<circle cx="1343.26" cy="596.783" r="1.34345" fill="white" fill-opacity="0.4"/>
<circle cx="994.12" cy="60.6408" r="1.20085" fill="white" fill-opacity="0.4"/>
<circle cx="669.349" cy="653.87" r="1.43016" fill="white" fill-opacity="0.6"/>
<circle cx="211.379" cy="529.9" r="1.46028" fill="white" fill-opacity="0.4"/>
<circle cx="302.121" cy="495.642" r="1.20254" fill="white" fill-opacity="0.5"/>
<circle cx="951.233" cy="303.754" r="1.31388" fill="white" fill-opacity="0.4"/>
<circle cx="1291.31" cy="243.828" r="1.38849" fill="white" fill-opacity="0.3"/>
<circle cx="17.1261" cy="10.6471" r="1.20712" fill="white" fill-opacity="0.5"/>
<circle cx="839.278" cy="231.799" r="1.35933" fill="white" fill-opacity="0.5"/>
<circle cx="385.203" cy="59.7242" r="1.2843" fill="white" fill-opacity="0.6"/>
<circle cx="1070.05" cy="454.574" r="1.13446" fill="white" fill-opacity="0.4"/>
<circle cx="1328.16" cy="789.678" r="1.23853" fill="white" fill-opacity="0.4"/>
<circle cx="491.276" cy="334.797" r="1.35681" fill="white" fill-opacity="0.5"/>
<circle cx="552.411" cy="221.932" r="1.49184" fill="white" fill-opacity="0.5"/>
<circle cx="963.269" cy="747.79" r="1.34997" fill="white" fill-opacity="0.6"/>
<circle cx="78.0685" cy="762.59" r="1.14958" fill="white" fill-opacity="0.5"/>
<circle cx="579.147" cy="294.668" r="1.22817" fill="white" fill-opacity="0.6"/>
<circle cx="480.31" cy="553.831" r="1.39063" fill="white" fill-opacity="0.4"/>
<circle cx="463.194" cy="221.715" r="1.27512" fill="white" fill-opacity="0.5"/>
<circle cx="623.089" cy="71.6096" r="1.16968" fill="white" fill-opacity="0.5"/>
<circle cx="987.94" cy="241.461" r="1.02114" fill="white" fill-opacity="0.3"/>
<circle cx="947.003" cy="842.524" r="1.08409" fill="white" fill-opacity="0.5"/>
<circle cx="406.235" cy="17.7563" r="1.31634" fill="white" fill-opacity="0.5"/>
<circle cx="1100.26" cy="629.782" r="1.34193" fill="white" fill-opacity="0.6"/>
<circle cx="285.926" cy="590.447" r="1.00663" fill="white" fill-opacity="0.3"/>
<circle cx="181.036" cy="434.557" r="1.11738" fill="white" fill-opacity="0.5"/>
<circle cx="342.169" cy="50.6904" r="1.25049" fill="white" fill-opacity="0.4"/>
<circle cx="213.402" cy="456.923" r="1.48323" fill="white" fill-opacity="0.5"/>
<circle cx="143.173" cy="131.694" r="1.25454" fill="white" fill-opacity="0.5"/>
<circle cx="126.312" cy="356.833" r="1.39261" fill="white" fill-opacity="0.5"/>
<circle cx="74.3455" cy="800.866" r="1.42654" fill="white" fill-opacity="0.6"/>
<circle cx="188.032" cy="69.5533" r="1.11334" fill="white" fill-opacity="0.4"/>
<circle cx="1086.22" cy="113.739" r="1.2993" fill="white" fill-opacity="0.5"/>
<circle cx="382.386" cy="894.907" r="1.46693" fill="white" fill-opacity="0.5"/>
<circle cx="518.361" cy="842.882" r="1.44196" fill="white" fill-opacity="0.6"/>
<circle cx="565.034" cy="696.555" r="1.11529" fill="white" fill-opacity="0.5"/>
<circle cx="4.35909" cy="267.88" r="1.44015" fill="white" fill-opacity="0.4"/>
<circle cx="210.02" cy="726.541" r="1.10102" fill="white" fill-opacity="0.5"/>
<circle cx="51.2522" cy="843.773" r="1.33322" fill="white" fill-opacity="0.4"/>
<circle cx="333.956" cy="296.477" r="1.03721" fill="white" fill-opacity="0.4"/>
<circle cx="167.097" cy="815.618" r="1.17845" fill="white" fill-opacity="0.6"/>
<circle cx="651.019" cy="7.53996" r="1.10002" fill="white" fill-opacity="0.6"/>
<circle cx="832.243" cy="92.764" r="1.32409" fill="white" fill-opacity="0.4"/>
<circle cx="824.237" cy="121.758" r="1.31759" fill="white" fill-opacity="0.4"/>
<circle cx="621.097" cy="575.618" r="1.1778" fill="white" fill-opacity="0.6"/>
<circle cx="1045.05" cy="716.574" r="1.13361" fill="white" fill-opacity="0.3"/>
<circle cx="282.933" cy="652.454" r="1.01384" fill="white" fill-opacity="0.4"/>
<circle cx="1252.09" cy="506.608" r="1.16817" fill="white" fill-opacity="0.5"/>
<circle cx="660.249" cy="819.77" r="1.33024" fill="white" fill-opacity="0.3"/>
<circle cx="522.999" cy="882.52" r="1.08043" fill="white" fill-opacity="0.4"/>
<circle cx="1042.13" cy="146.654" r="1.21442" fill="white" fill-opacity="0.6"/>
<circle cx="74.9314" cy="439.452" r="1.01245" fill="white" fill-opacity="0.3"/>
<circle cx="594.267" cy="177.788" r="1.34809" fill="white" fill-opacity="0.6"/>
<circle cx="1296.03" cy="641.546" r="1.10613" fill="white" fill-opacity="0.4"/>
<circle cx="1027.23" cy="177.755" r="1.31508" fill="white" fill-opacity="0.5"/>
<circle cx="355.111" cy="126.632" r="1.1919" fill="white" fill-opacity="0.3"/>
<circle cx="1154.38" cy="584.9" r="1.4603" fill="white" fill-opacity="0.5"/>
<circle cx="452.352" cy="225.873" r="1.43301" fill="white" fill-opacity="0.5"/>
<circle cx="177.11" cy="126.631" r="1.19139" fill="white" fill-opacity="0.4"/>
<circle cx="839.98" cy="818.501" r="1.06096" fill="white" fill-opacity="0.6"/>
<circle cx="1071.11" cy="132.636" r="1.19579" fill="white" fill-opacity="0.5"/>
<circle cx="621.955" cy="565.476" r="1.03584" fill="white" fill-opacity="0.3"/>
<circle cx="452.179" cy="654.7" r="1.26" fill="white" fill-opacity="0.4"/>
<circle cx="1153.33" cy="605.851" r="1.41148" fill="white" fill-opacity="0.4"/>
<circle cx="147.212" cy="426.733" r="1.29279" fill="white" fill-opacity="0.3"/>
<circle cx="30.1085" cy="161.63" r="1.18956" fill="white" fill-opacity="0.3"/>
<circle cx="28.1778" cy="610.699" r="1.25885" fill="white" fill-opacity="0.6"/>
<circle cx="1144.35" cy="162.87" r="1.42965" fill="white" fill-opacity="0.4"/>
<circle cx="380.304" cy="638.825" r="1.38462" fill="white" fill-opacity="0.6"/>
<circle cx="970.276" cy="548.797" r="1.35695" fill="white" fill-opacity="0.6"/>
<circle cx="776.996" cy="222.517" r="1.07751" fill="white" fill-opacity="0.5"/>
<circle cx="871.991" cy="704.512" r="1.07221" fill="white" fill-opacity="0.6"/>
<circle cx="592.135" cy="234.656" r="1.21556" fill="white" fill-opacity="0.5"/>
<circle cx="886.971" cy="868.492" r="1.05226" fill="white" fill-opacity="0.4"/>
<circle cx="286.251" cy="405.772" r="1.33256" fill="white" fill-opacity="0.4"/>
<circle cx="210.957" cy="214.478" r="1.03759" fill="white" fill-opacity="0.4"/>
<circle cx="713.955" cy="630.476" r="1.03609" fill="white" fill-opacity="0.4"/>
<circle cx="742.149" cy="871.67" r="1.22981" fill="white" fill-opacity="0.4"/>
<circle cx="990.364" cy="582.885" r="1.44546" fill="white" fill-opacity="0.4"/>
<circle cx="739.321" cy="357.842" r="1.40248" fill="white" fill-opacity="0.4"/>
<circle cx="168.197" cy="390.718" r="1.2784" fill="white" fill-opacity="0.6"/>
<circle cx="856.988" cy="127.509" r="1.06867" fill="white" fill-opacity="0.5"/>
<circle cx="882.33" cy="38.8514" r="1.41147" fill="white" fill-opacity="0.5"/>
<circle cx="73.1679" cy="13.6889" r="1.24896" fill="white" fill-opacity="0.4"/>
<circle cx="247.167" cy="494.688" r="1.24765" fill="white" fill-opacity="0.3"/>
<circle cx="937.028" cy="492.549" r="1.10946" fill="white" fill-opacity="0.4"/>
<circle cx="387.226" cy="251.747" r="1.30746" fill="white" fill-opacity="0.3"/>
<circle cx="1328.99" cy="181.512" r="1.07201" fill="white" fill-opacity="0.4"/>
<circle cx="194.113" cy="563.634" r="1.19379" fill="white" fill-opacity="0.5"/>
<circle cx="246.081" cy="887.602" r="1.16186" fill="white" fill-opacity="0.3"/>
<circle cx="1205.13" cy="826.65" r="1.21011" fill="white" fill-opacity="0.4"/>
<circle cx="419.957" cy="140.478" r="1.03843" fill="white" fill-opacity="0.3"/>
<circle cx="615.971" cy="805.492" r="1.0516" fill="white" fill-opacity="0.6"/>
<circle cx="492.305" cy="253.826" r="1.38595" fill="white" fill-opacity="0.5"/>
<circle cx="1211.17" cy="209.695" r="1.25537" fill="white" fill-opacity="0.4"/>
<circle cx="591.997" cy="683.518" r="1.0781" fill="white" fill-opacity="0.5"/>
<circle cx="621.2" cy="667.721" r="1.28056" fill="white" fill-opacity="0.4"/>
<circle cx="498.922" cy="134.443" r="1.00334" fill="white" fill-opacity="0.6"/>
<circle cx="1274.95" cy="291.471" r="1.03142" fill="white" fill-opacity="0.3"/>
<circle cx="377.222" cy="310.743" r="1.30328" fill="white" fill-opacity="0.3"/>
<circle cx="703.16" cy="397.681" r="1.24099" fill="white" fill-opacity="0.5"/>
<circle cx="214.257" cy="127.778" r="1.33818" fill="white" fill-opacity="0.5"/>
<circle cx="1286.18" cy="594.705" r="1.26547" fill="white" fill-opacity="0.4"/>
<circle cx="1343.07" cy="169.594" r="1.15373" fill="white" fill-opacity="0.3"/>
<circle cx="661.393" cy="20.9144" r="1.47446" fill="white" fill-opacity="0.6"/>
<circle cx="215.011" cy="97.5325" r="1.09251" fill="white" fill-opacity="0.5"/>
<circle cx="1202.21" cy="97.7292" r="1.28923" fill="white" fill-opacity="0.4"/>
<circle cx="652.165" cy="690.686" r="1.24598" fill="white" fill-opacity="0.4"/>
<circle cx="502.088" cy="296.609" r="1.16916" fill="white" fill-opacity="0.5"/>
<g opacity="0.1">
<g clip-path="url(#clip1_6066_193616)">
<path d="M12.8242 -107.841V1210.74" stroke="white"/>
<path d="M76.8242 -107.841V1210.74" stroke="white"/>
<path d="M140.824 -107.841V1210.74" stroke="white"/>
<path d="M204.824 -107.841V1210.74" stroke="white"/>
<path d="M268.824 -107.841V1210.74" stroke="white"/>
<path d="M332.824 -107.841V1210.74" stroke="white"/>
<path d="M396.824 -107.841V1210.74" stroke="white"/>
<path d="M460.824 -107.841V1210.74" stroke="white"/>
<path d="M524.824 -107.841V1210.74" stroke="white"/>
<path d="M588.824 -107.841V1210.74" stroke="white"/>
<path d="M652.824 -107.841V1210.74" stroke="white"/>
<path d="M716.824 -107.841V1210.74" stroke="white"/>
<path d="M780.824 -107.841V1210.74" stroke="white"/>
<path d="M844.824 -107.841V1210.74" stroke="white"/>
<path d="M908.824 -107.841V1210.74" stroke="white"/>
<path d="M972.824 -107.841V1210.74" stroke="white"/>
<path d="M1036.82 -107.841V1210.74" stroke="white"/>
<path d="M1100.82 -107.841V1210.74" stroke="white"/>
<path d="M1164.82 -107.841V1210.74" stroke="white"/>
<path d="M1228.82 -107.841V1210.74" stroke="white"/>
<path d="M1292.82 -107.841V1210.74" stroke="white"/>
<path d="M1356.82 -107.841V1210.74" stroke="white"/>
<path d="M1420.82 -107.841V1210.74" stroke="white"/>
</g>
<g clip-path="url(#clip2_6066_193616)">
<path d="M-243.176 20.1592L1484.82 20.1592" stroke="white"/>
<path d="M-243.176 84.1592L1484.82 84.1592" stroke="white"/>
<path d="M-243.176 148.159L1484.82 148.159" stroke="white"/>
<path d="M-243.176 212.159L1484.82 212.159" stroke="white"/>
<path d="M-243.176 276.159L1484.82 276.159" stroke="white"/>
<path d="M-243.176 340.159L1484.82 340.159" stroke="white"/>
<path d="M-243.176 404.159L1484.82 404.159" stroke="white"/>
<path d="M-243.176 468.159L1484.82 468.159" stroke="white"/>
<path d="M-243.176 532.159L1484.82 532.159" stroke="white"/>
<path d="M-243.176 596.159L1484.82 596.159" stroke="white"/>
<path d="M-243.176 660.159L1484.82 660.159" stroke="white"/>
<path d="M-243.176 724.159L1484.82 724.159" stroke="white"/>
<path d="M-243.176 788.159L1484.82 788.159" stroke="white"/>
<path d="M-243.176 852.159L1484.82 852.159" stroke="white"/>
<path d="M-243.176 916.159L1484.82 916.159" stroke="white"/>
<path d="M-243.176 980.159L1484.82 980.159" stroke="white"/>
</g>
</g>
</g>
<defs>
<clipPath id="clip0_6066_193616">
<rect width="1437" height="1024" fill="white" transform="translate(0 -40)"/>
</clipPath>
<clipPath id="clip1_6066_193616">
<rect width="1728" height="1117" fill="white" transform="translate(-243.176 -107.841)"/>
</clipPath>
<clipPath id="clip2_6066_193616">
<rect width="1728" height="1117" fill="white" transform="translate(-243.176 -107.841)"/>
</clipPath>
</defs>
</svg>
