<svg width="100" height="100" viewBox="0 0 100 100" fill="none" xmlns="http://www.w3.org/2000/svg">
<g clip-path="url(#clip0_6056_615643)">
<mask id="mask0_6056_615643" style="mask-type:luminance" maskUnits="userSpaceOnUse" x="0" y="0" width="100" height="100">
<path d="M100 0H0V100H100V0Z" fill="white"/>
</mask>
<g mask="url(#mask0_6056_615643)">
<path d="M50 100C77.6142 100 100 77.6142 100 50C100 22.3858 77.6142 0 50 0C22.3858 0 0 22.3858 0 50C0 77.6142 22.3858 100 50 100Z" fill="url(#paint0_radial_6056_615643)"/>
<mask id="mask1_6056_615643" style="mask-type:alpha" maskUnits="userSpaceOnUse" x="0" y="0" width="100" height="100">
<path d="M50 100C77.6142 100 100 77.6142 100 50C100 22.3858 77.6142 0 50 0C22.3858 0 0 22.3858 0 50C0 77.6142 22.3858 100 50 100Z" fill="url(#paint1_radial_6056_615643)"/>
</mask>
<g mask="url(#mask1_6056_615643)">
<path opacity="0.2" d="M-1.66699 27.5C-1.66699 26.3955 -0.771562 25.5 0.333008 25.5H27.6663C28.7708 25.5 29.6663 26.3955 29.6663 27.5V74C29.6663 75.1045 28.7708 76 27.6663 76H0.333008C-0.771562 76 -1.66699 75.1045 -1.66699 74V27.5Z" fill="url(#paint2_linear_6056_615643)"/>
<path opacity="0.2" d="M60.333 67.8335C60.333 66.729 61.2285 65.8335 62.333 65.8335H97.9997C99.1042 65.8335 99.9997 66.729 99.9997 67.8335V85.1668C99.9997 86.2713 99.1042 87.1668 97.9997 87.1668H62.333C61.2285 87.1668 60.333 86.2713 60.333 85.1668V67.8335Z" fill="#E74310"/>
<path opacity="0.2" d="M83.4997 73.167C84.6042 73.167 85.4997 74.0625 85.4997 75.167V108.834C85.4997 109.938 84.6042 110.834 83.4997 110.834H70.333C69.2285 110.834 68.333 109.938 68.333 108.834V75.167C68.333 74.0625 69.2285 73.167 70.333 73.167H83.4997Z" fill="#DF3600"/>
<path opacity="0.1" d="M40.4998 32.5C41.6043 32.5 42.4998 33.3955 42.4998 34.5V61.3333C42.4998 62.4378 41.6043 63.3333 40.4998 63.3333H25.6665C24.562 63.3333 23.6665 62.4378 23.6665 61.3333V34.5C23.6665 33.3955 24.562 32.5 25.6665 32.5H40.4998Z" fill="url(#paint3_linear_6056_615643)"/>
<path opacity="0.1" d="M9.5 40.5C9.5 39.3955 10.3954 38.5 11.5 38.5H35.8333C36.9378 38.5 37.8333 39.3955 37.8333 40.5V66C37.8333 67.1045 36.9378 68 35.8333 68H11.5C10.3954 68 9.5 67.1045 9.5 66V40.5Z" fill="url(#paint4_linear_6056_615643)"/>
<path opacity="0.2" d="M100 13.667C101.104 13.667 102 14.5624 102 15.667V49.3337C102 50.4382 101.104 51.3337 100 51.3337H69C67.8955 51.3337 67 50.4382 67 49.3337V15.667C67 14.5624 67.8955 13.667 69 13.667H100Z" fill="#FF9776"/>
<path opacity="0.2" d="M81.1663 -8.6665C82.2708 -8.6665 83.1663 -7.77107 83.1663 -6.6665V30.3335C83.1663 31.438 82.2708 32.3335 81.1663 32.3335H63.833C62.7285 32.3335 61.833 31.438 61.833 30.3335V-6.6665C61.833 -7.77107 62.7285 -8.6665 63.833 -8.6665H81.1663Z" fill="#FFCA8C"/>
<path opacity="0.2" d="M90.1667 -2C91.2712 -2 92.1667 -1.10457 92.1667 1.90735e-06V41.1667C92.1667 42.2712 91.2712 43.1667 90.1667 43.1667H52.5C51.3955 43.1667 50.5 42.2712 50.5 41.1667V1.19209e-06C50.5 -1.10457 51.3955 -2 52.5 -2H90.1667Z" fill="url(#paint5_linear_6056_615643)"/>
<path opacity="0.1" d="M35.3332 -13.6665C36.4377 -13.6665 37.3332 -12.7711 37.3332 -11.6665V16.0002C37.3332 17.1047 36.4377 18.0002 35.3332 18.0002H22.1665C21.062 18.0002 20.1665 17.1047 20.1665 16.0002V-11.6665C20.1665 -12.7711 21.062 -13.6665 22.1665 -13.6665H35.3332Z" fill="#DF3600"/>
<path opacity="0.1" d="M36.833 72.167C37.9375 72.167 38.833 73.0625 38.833 74.167V98.0003C38.833 99.1048 37.9375 100 36.833 100H3.33301C2.22844 100 1.33301 99.1048 1.33301 98.0003L1.33301 74.167C1.33301 73.0625 2.22844 72.167 3.33301 72.167H36.833Z" fill="#DF3600"/>
<path opacity="0.1" d="M66.3333 58.8335C67.4378 58.8335 68.3333 59.729 68.3333 60.8335V98.0002C68.3333 99.1047 67.4378 100 66.3333 100H28C26.8955 100 26 99.1047 26 98.0002V60.8335C26 59.729 26.8955 58.8335 28 58.8335H66.3333Z" fill="#FFD494"/>
<path opacity="0.2" d="M53.6665 1.74845e-06C54.771 1.79673e-06 55.6665 0.895432 55.6665 2V11.6667C55.6665 12.7712 54.771 13.6667 53.6665 13.6667H13.6665C12.5619 13.6667 11.6665 12.7712 11.6665 11.6667V2C11.6665 0.89543 12.5619 -4.82823e-08 13.6665 0L53.6665 1.74845e-06Z" fill="#FFD494"/>
<path opacity="0.1" d="M22.1244 99.0265L97.0259 24.125L94.457 21.5562L19.5556 96.4576L22.1244 99.0265Z" fill="#DF3600"/>
<path opacity="0.1" d="M16.5058 93.5743L91.4072 18.6729L88.0627 15.3283L13.1612 90.2298L16.5058 93.5743Z" fill="#DF3600"/>
<path opacity="0.1" d="M13.3441 90.0797L88.2456 15.1782L84.901 11.8337L9.99959 86.7351L13.3441 90.0797Z" fill="#F45C2C"/>
<path opacity="0.2" d="M10.3441 86.4127L85.2456 11.5112L82.493 8.75858L7.59149 83.66L10.3441 86.4127Z" fill="#F45C2C"/>
<path opacity="0.1" d="M7.58584 83.6544L82.4873 8.75293L79.7347 6.00028L4.83319 80.9017L7.58584 83.6544Z" fill="#FFBC6E"/>
<path opacity="0.1" d="M5.75235 79.9874L80.6538 5.08594L77.9012 2.33329L2.9997 77.2348L5.75235 79.9874Z" fill="#DF3600"/>
<path opacity="0.09" d="M-3.08101 57.9877L55.9795 -1.07275L53.2268 -3.8254L-5.83366 55.2351L-3.08101 57.9877Z" fill="#FFD5A4"/>
<path opacity="0.08" d="M-6.24751 54.6464L52.813 -4.41406L50.0603 -7.16671L-9.00016 51.8938L-6.24751 54.6464Z" fill="#FFD5A4"/>
<path opacity="0.05" d="M-9.08101 50.8134L49.9795 -8.24707L47.2268 -10.9997L-11.8337 48.0608L-9.08101 50.8134Z" fill="#FFD5A4"/>
<path opacity="0.2" d="M1.5859 66.0147L70.1812 -2.58057L67.4285 -5.33322L-1.16675 63.262L1.5859 66.0147Z" fill="#FFD5A4"/>
<path opacity="0.2" d="M3.41891 70.3482L72.0142 1.75293L69.2615 -0.999719L0.666258 67.5955L3.41891 70.3482Z" fill="#FFD5A4"/>
<path opacity="0.1" d="M0.419326 60.9874L61.2998 0.106934L58.5472 -2.64572L-2.33332 58.2348L0.419326 60.9874Z" fill="#FFD5A4"/>
<path opacity="0.1" d="M22.0141 99.0826L96.9155 24.1812L91.4239 18.6895L16.5224 93.5909L22.0141 99.0826Z" fill="#DF3600"/>
<path opacity="0.1" d="M22.0141 99.0826L96.9155 24.1812L91.3959 18.6615L16.4944 93.563L22.0141 99.0826Z" fill="#DF3600"/>
</g>
<path d="M49.926 60.7887L30.9028 49.5354L49.926 17.978L68.9322 49.5354L49.926 60.7887Z" fill="white"/>
<path d="M49.926 79.9483L30.9028 53.1553L49.926 64.3916L68.9493 53.1553L49.926 79.9483Z" fill="white"/>
</g>
</g>
<defs>
<radialGradient id="paint0_radial_6056_615643" cx="0" cy="0" r="1" gradientUnits="userSpaceOnUse" gradientTransform="translate(32.6667 23.9167) rotate(54.1675) scale(82.847)">
<stop stop-color="#FFD794"/>
<stop offset="1" stop-color="#ED5A37"/>
</radialGradient>
<radialGradient id="paint1_radial_6056_615643" cx="0" cy="0" r="1" gradientUnits="userSpaceOnUse" gradientTransform="translate(32.6667 23.9167) rotate(54.1675) scale(82.847)">
<stop stop-color="#FFD794"/>
<stop offset="1" stop-color="#ED5A37"/>
</radialGradient>
<linearGradient id="paint2_linear_6056_615643" x1="13.9997" y1="25.5" x2="13.9997" y2="76" gradientUnits="userSpaceOnUse">
<stop stop-color="#FFE090"/>
<stop offset="1" stop-color="#FFE090" stop-opacity="0"/>
</linearGradient>
<linearGradient id="paint3_linear_6056_615643" x1="32.9998" y1="32.5" x2="32.9998" y2="61" gradientUnits="userSpaceOnUse">
<stop stop-color="#DF3600"/>
<stop offset="1" stop-color="#DF3600" stop-opacity="0"/>
</linearGradient>
<linearGradient id="paint4_linear_6056_615643" x1="9.5" y1="53.3805" x2="35.6892" y2="53.3805" gradientUnits="userSpaceOnUse">
<stop stop-color="#DF3600"/>
<stop offset="1" stop-color="#DF3600" stop-opacity="0"/>
</linearGradient>
<linearGradient id="paint5_linear_6056_615643" x1="71.3333" y1="-2" x2="71.3333" y2="43.1667" gradientUnits="userSpaceOnUse">
<stop stop-color="#DF3600"/>
<stop offset="1" stop-color="#DF3600" stop-opacity="0"/>
</linearGradient>
<clipPath id="clip0_6056_615643">
<rect width="100" height="100" fill="white"/>
</clipPath>
</defs>
</svg>
