<svg width="100" height="100" viewBox="0 0 100 100" fill="none" xmlns="http://www.w3.org/2000/svg">
<circle cx="50" cy="50" r="49" fill="#BBB9FD" stroke="#9896FB" stroke-width="2"/>
<g clip-path="url(#clip0_7310_190929)">
<path d="M7.99316 72.6447L49.7988 90.2055V55.8169L7.99316 72.6447Z" fill="url(#paint0_linear_7310_190929)"/>
<path d="M49.7988 90.2057L91.6045 72.7256L49.7988 55.8135V90.2021V90.2057Z" fill="url(#paint1_linear_7310_190929)"/>
<path d="M49.7988 55.8134L91.6045 72.7255L74.5062 45.897L49.7988 55.817V55.8134Z" fill="url(#paint2_linear_7310_190929)"/>
<path d="M7.99316 72.6449L49.7988 55.8171L25.0914 45.8164L7.99316 72.6449Z" fill="url(#paint3_linear_7310_190929)"/>
<path d="M25.1895 45.8161L49.8969 55.8168V7.11426L25.1895 45.8124V45.8161Z" fill="url(#paint4_linear_7310_190929)"/>
<path d="M49.7988 55.8131L74.5062 45.893L49.7988 7.11426V55.8131Z" fill="url(#paint5_linear_7310_190929)"/>
<path d="M7.99316 72.6447L49.7988 90.2055V55.8169L7.99316 72.6447Z" fill="url(#paint6_linear_7310_190929)"/>
<path d="M49.7988 90.2057L91.6045 72.7256L49.7988 55.8135V90.2021V90.2057Z" fill="url(#paint7_linear_7310_190929)"/>
<path d="M49.7988 55.8134L91.6045 72.7255L74.5062 45.897L49.7988 55.817V55.8134Z" fill="url(#paint8_linear_7310_190929)"/>
<path d="M7.99316 72.6449L49.7988 55.8171L25.0914 45.8164L7.99316 72.6449Z" fill="url(#paint9_linear_7310_190929)"/>
<path d="M25.1895 45.8161L49.8969 55.8168V7.11426L25.1895 45.8124V45.8161Z" fill="url(#paint10_linear_7310_190929)"/>
<path d="M49.8124 55.7731V7.07422L25.105 45.7724L49.8124 55.7731Z" stroke="#9689BD" stroke-width="0.02" stroke-miterlimit="9.88"/>
<path d="M49.7988 55.8131L74.5062 45.893L49.7988 7.11426V55.8131Z" fill="url(#paint11_linear_7310_190929)"/>
<path d="M49.812 55.7731V7.07422L74.5194 45.853L49.812 55.7731Z" stroke="#B0A0CE" stroke-width="0.02" stroke-miterlimit="9.88"/>
</g>
<defs>
<linearGradient id="paint0_linear_7310_190929" x1="17.0067" y1="59.7623" x2="55.5172" y2="83.3393" gradientUnits="userSpaceOnUse">
<stop stop-color="#8277A6"/>
<stop offset="1" stop-color="#655880"/>
</linearGradient>
<linearGradient id="paint1_linear_7310_190929" x1="46.6658" y1="93.1719" x2="69.7897" y2="51.9465" gradientUnits="userSpaceOnUse">
<stop stop-color="#665A82"/>
<stop offset="0.24" stop-color="#73638D"/>
<stop offset="1" stop-color="#B4A6D1"/>
</linearGradient>
<linearGradient id="paint2_linear_7310_190929" x1="69.8875" y1="65.0955" x2="95.4271" y2="30.8423" gradientUnits="userSpaceOnUse">
<stop stop-color="#B0A0CE"/>
<stop offset="1" stop-color="#CEC6E2"/>
</linearGradient>
<linearGradient id="paint3_linear_7310_190929" x1="29.4678" y1="62.7813" x2="32.6489" y2="51.1827" gradientUnits="userSpaceOnUse">
<stop stop-color="#887CAE"/>
<stop offset="1" stop-color="#7A6E9B"/>
</linearGradient>
<linearGradient id="paint4_linear_7310_190929" x1="56.1249" y1="31.7" x2="34.6942" y2="31.7" gradientUnits="userSpaceOnUse">
<stop stop-color="#B0A0CE"/>
<stop offset="1" stop-color="#887CAE"/>
</linearGradient>
<linearGradient id="paint5_linear_7310_190929" x1="57.1433" y1="37.6623" x2="69.4494" y2="51.8641" gradientUnits="userSpaceOnUse">
<stop stop-color="#B0A0CE"/>
<stop offset="1" stop-color="#CEC6E2"/>
</linearGradient>
<linearGradient id="paint6_linear_7310_190929" x1="17.0067" y1="59.7623" x2="55.5172" y2="83.3393" gradientUnits="userSpaceOnUse">
<stop stop-color="#8277A6"/>
<stop offset="1" stop-color="#655880"/>
</linearGradient>
<linearGradient id="paint7_linear_7310_190929" x1="46.6658" y1="93.1719" x2="69.7897" y2="51.9465" gradientUnits="userSpaceOnUse">
<stop stop-color="#665A82"/>
<stop offset="0.24" stop-color="#73638D"/>
<stop offset="1" stop-color="#B4A6D1"/>
</linearGradient>
<linearGradient id="paint8_linear_7310_190929" x1="69.8875" y1="65.0955" x2="95.4271" y2="30.8423" gradientUnits="userSpaceOnUse">
<stop stop-color="#B0A0CE"/>
<stop offset="1" stop-color="#CEC6E2"/>
</linearGradient>
<linearGradient id="paint9_linear_7310_190929" x1="29.4678" y1="62.7813" x2="32.6489" y2="51.1827" gradientUnits="userSpaceOnUse">
<stop stop-color="#887CAE"/>
<stop offset="1" stop-color="#7A6E9B"/>
</linearGradient>
<linearGradient id="paint10_linear_7310_190929" x1="56.1249" y1="31.7" x2="34.6942" y2="31.7" gradientUnits="userSpaceOnUse">
<stop stop-color="#B0A0CE"/>
<stop offset="1" stop-color="#887CAE"/>
</linearGradient>
<linearGradient id="paint11_linear_7310_190929" x1="57.1433" y1="37.6623" x2="69.4494" y2="51.8641" gradientUnits="userSpaceOnUse">
<stop stop-color="#B0A0CE"/>
<stop offset="1" stop-color="#CEC6E2"/>
</linearGradient>
<clipPath id="clip0_7310_190929">
<rect width="83.6158" height="83.1461" fill="white" transform="translate(7.90967 6.7417)"/>
</clipPath>
</defs>
</svg>
